<svg xmlns="http://www.w3.org/2000/svg" viewBox="0 0 200 48" width="250" height="60">
  <g fill="#1D4ED8">
    <path d="M12 8 L28 8 L28 40 L12 40 C10.89 40 10 39.1 10 38 L10 10 C10 8.89 10.89 8 12 8 Z" fill="#EFF6FF"/>
    <path d="M12 8 L28 8 L28 40 L12 40 C10.89 40 10 39.1 10 38 L10 10 C10 8.89 10.89 8 12 8 Z" stroke="#1D4ED8" strokeWidth="2" fill="none"/>
    <line x1="14" y1="16" x2="24" y2="16" stroke="#1D4ED8" strokeWidth="2"/>
    <line x1="14" y1="22" x2="24" y2="22" strokeWidth="2"/>
    <line x1="14" y1="28" x2="20" y2="28" stroke="#1D4ED8" strokeWidth="2"/>
  </g>
  <text x="40" y="32" fontFamily="Arial, sans-serif" fontSize="24" fontWeight="600" fill="#1E293B">
    Dev<tspan fill="#1D4ED8">Resume</tspan>
  </text>
</svg>